<svg width="24" height="25" viewBox="0 0 24 25" fill="none" xmlns="http://www.w3.org/2000/svg">
<path d="M21.97 18.9716C21.97 19.3316 21.89 19.7016 21.72 20.0616C21.55 20.4216 21.33 20.7616 21.04 21.0816C20.55 21.6216 20.01 22.0116 19.4 22.2616C18.8 22.5116 18.15 22.6416 17.45 22.6416C16.43 22.6416 15.34 22.4016 14.19 21.9116C13.04 21.4216 11.89 20.7616 10.75 19.9316C9.6 19.0916 8.51 18.1616 7.47 17.1316C6.44 16.0916 5.51 15.0016 4.68 13.8616C3.86 12.7216 3.2 11.5816 2.72 10.4516C2.24 9.3116 2 8.2216 2 7.1816C2 6.5016 2.12 5.8516 2.36 5.2516C2.6 4.6416 2.98 4.0816 3.51 3.5816C4.15 2.9516 4.85 2.6416 5.59 2.6416C5.87 2.6416 6.15 2.7016 6.4 2.8216C6.66 2.9416 6.89 3.1216 7.07 3.3816L9.39 6.6516C9.57 6.9016 9.7 7.1316 9.79 7.3516C9.88 7.5616 9.93 7.7716 9.93 7.9616C9.93 8.2016 9.86 8.4416 9.72 8.6716C9.59 8.9016 9.4 9.1416 9.16 9.3816L8.4 10.1716C8.29 10.2816 8.24 10.4116 8.24 10.5716C8.24 10.6516 8.25 10.7216 8.27 10.8016C8.3 10.8816 8.33 10.9416 8.35 11.0016C8.53 11.3316 8.84 11.7616 9.28 12.2816C9.73 12.8016 10.21 13.3316 10.73 13.8616C11.27 14.3916 11.79 14.8816 12.32 15.3316C12.84 15.7716 13.27 16.0716 13.61 16.2516C13.66 16.2716 13.72 16.3016 13.79 16.3316C13.87 16.3616 13.95 16.3716 14.04 16.3716C14.21 16.3716 14.34 16.3116 14.45 16.2016L15.21 15.4516C15.46 15.2016 15.7 15.0116 15.93 14.8916C16.16 14.7516 16.39 14.6816 16.64 14.6816C16.83 14.6816 17.03 14.7216 17.25 14.8116C17.47 14.9016 17.7 15.0316 17.95 15.2016L21.26 17.5516C21.52 17.7316 21.7 17.9416 21.81 18.1916C21.91 18.4416 21.97 18.6916 21.97 18.9716Z" fill="#033A3D"/>
</svg>
