<svg width="101" height="100" viewBox="0 0 101 100" fill="none" xmlns="http://www.w3.org/2000/svg">
<circle cx="50.75" cy="50" r="50" fill="white"/>
<path d="M75.1979 19.0549L75.6306 19.1653C75.6695 19.2592 75.7018 19.3531 75.727 19.4518C76.0107 20.5587 75.6325 24.512 75.0466 25.44C77.2732 25.3736 79.5305 25.0673 81.75 24.8612C81.7362 24.957 81.7158 25.0495 81.6828 25.1409C81.4007 25.9237 76.0845 31.2321 75.1976 31.6155C74.1605 31.8359 73.0422 31.8261 71.984 31.8807C71.8494 32.5042 56.3594 47.9393 54.3464 49.5533C54.3983 49.6308 54.4024 49.6301 54.4432 49.7321C54.8874 50.8377 54.6975 52.3598 54.1862 53.4002C53.5663 54.6608 52.6401 55.4955 51.3149 55.9552C51.2934 55.9734 51.2727 55.993 51.2504 56.0101C50.7228 56.4157 49.5274 56.5381 48.8767 56.4699C47.5864 56.3349 46.4251 55.4384 45.6357 54.4532C44.6835 53.2649 44.2727 51.8344 44.4511 50.3227C44.5938 49.1117 45.0573 47.9482 46.0502 47.1863C47.4666 46.0995 49.2504 45.9887 50.9434 46.2148C53.0995 44.7199 56.0768 41.2568 58.0828 39.2575C61.4075 35.9439 65.0056 32.7296 68.1353 29.2407C68.3541 28.9967 68.4787 28.7955 68.5498 28.4709C69.0441 27.8456 69.205 25.8264 69.1268 25.0249C70.5135 23.8906 74.4949 20.4644 75.1979 19.0549Z" fill="#FCBB00"/>
<path d="M47.6925 33.8444C47.9706 33.8165 48.2493 33.7999 48.5286 33.7947C51.193 33.731 56.17 34.213 58.1755 36.1284C58.1622 36.1696 58.15 36.2115 58.1351 36.2523C57.8426 37.0561 54.2953 40.3553 53.4896 40.7116C52.9209 40.3531 52.2264 40.2003 51.5727 40.0713C48.7704 39.5162 45.4159 40.2915 43.0685 41.8918C42.9167 41.9966 42.7677 42.105 42.6214 42.217C42.475 42.3292 42.3317 42.4449 42.1913 42.564C42.0506 42.6834 41.9131 42.8062 41.7786 42.9322C41.6441 43.0583 41.5129 43.1877 41.3848 43.3204C41.257 43.4529 41.1324 43.5886 41.0111 43.7275C40.8899 43.8665 40.7723 44.0082 40.6581 44.1528C40.5439 44.2977 40.4334 44.4452 40.3266 44.5955C40.2198 44.7456 40.1169 44.8983 40.0177 45.0538C39.9186 45.2091 39.8233 45.3668 39.7319 45.5269C39.6407 45.6869 39.5534 45.8491 39.4701 46.0138C39.3871 46.1781 39.3081 46.3445 39.2332 46.5128C39.1583 46.6812 39.0876 46.8512 39.0211 47.023C38.9546 47.1951 38.8924 47.3686 38.8346 47.5436C38.7768 47.7186 38.7234 47.8948 38.6744 48.0723C38.6255 48.2501 38.581 48.4289 38.5409 48.6088C38.5009 48.7886 38.4653 48.9692 38.4341 49.1509C38.4 49.3361 38.3705 49.5218 38.3455 49.7082C38.3206 49.8948 38.3002 50.082 38.2844 50.2696C38.2688 50.4572 38.2578 50.645 38.2514 50.8332C38.2452 51.0213 38.2436 51.2094 38.2465 51.3975C38.2498 51.5856 38.2575 51.7736 38.2699 51.9614C38.2825 52.1493 38.2997 52.3367 38.3214 52.5235C38.3432 52.7104 38.3696 52.8967 38.4008 53.0823C38.4317 53.2679 38.4673 53.4527 38.5076 53.6366C38.5479 53.8205 38.5927 54.0033 38.6422 54.185C38.6916 54.3664 38.7455 54.5466 38.8038 54.7256C38.8622 54.9046 38.9248 55.082 38.9918 55.258C39.059 55.4338 39.1306 55.6078 39.2065 55.7801C39.2824 55.9524 39.3625 56.1227 39.4468 56.291C39.531 56.4591 39.6195 56.6251 39.7122 56.789C39.8049 56.9529 39.9016 57.1144 40.0022 57.2736C40.1028 57.4325 40.2073 57.589 40.3159 57.743C40.4212 57.8935 40.5302 58.0413 40.6429 58.1864C40.7558 58.3315 40.8721 58.4738 40.9918 58.6132C41.1117 58.7526 41.2349 58.8891 41.3615 59.0226C41.4878 59.1558 41.6174 59.2859 41.7504 59.413C41.8834 59.5398 42.0195 59.6633 42.1586 59.7834C42.2978 59.9035 42.4398 60.0202 42.5846 60.1334C42.7295 60.2466 42.8769 60.3562 43.027 60.4623C43.1773 60.5681 43.3302 60.6702 43.4856 60.7686C43.6409 60.8667 43.7985 60.9611 43.9584 61.0518C44.1186 61.1423 44.2807 61.2288 44.4448 61.3114C44.6092 61.3939 44.7755 61.4723 44.9435 61.5465C45.1119 61.6209 45.2818 61.6909 45.4534 61.7567C45.6249 61.8227 45.7981 61.8844 45.9728 61.9417C46.1476 61.999 46.3236 62.0521 46.5008 62.1008C46.6781 62.1495 46.8565 62.1937 47.0362 62.2335C47.2157 62.2733 47.396 62.3086 47.5772 62.3395C47.7646 62.3709 47.9527 62.3976 48.1415 62.4196C48.3304 62.4416 48.5196 62.4589 48.7092 62.4715C48.899 62.4842 49.089 62.4921 49.2791 62.4953C49.4691 62.4985 49.6591 62.497 49.8489 62.4908C50.039 62.4844 50.2288 62.4733 50.4181 62.4575C50.6074 62.4419 50.7964 62.4215 50.985 62.3963C51.1734 62.3711 51.361 62.3413 51.5479 62.3069C51.7347 62.2723 51.9207 62.2331 52.1059 62.1894C52.2908 62.1456 52.4746 62.0973 52.6572 62.0444C52.8397 61.9915 53.0207 61.934 53.2004 61.872C53.3801 61.8102 53.5582 61.7438 53.7347 61.6729C53.911 61.6022 54.0855 61.5271 54.2583 61.4475C54.4308 61.3681 54.6014 61.2844 54.7699 61.1964C54.9385 61.1084 55.1047 61.0164 55.2686 60.9202C55.4325 60.8238 55.5938 60.7234 55.7525 60.6191C55.9114 60.5148 56.0677 60.4067 56.2212 60.2947C56.3715 60.184 56.5189 60.0696 56.6635 59.9517C56.8081 59.8338 56.9497 59.7125 57.0884 59.5876C57.2268 59.4625 57.3622 59.3343 57.4944 59.2028C57.6269 59.071 57.7559 58.9362 57.8815 58.7982C58.0071 58.6603 58.1292 58.5193 58.2478 58.3752C58.3665 58.2313 58.4814 58.0845 58.5927 57.9347C58.7041 57.7851 58.8118 57.6329 58.9156 57.4779C59.0194 57.3229 59.1194 57.1654 59.2156 57.0055C59.3115 56.8456 59.4036 56.6833 59.4918 56.5187C59.5798 56.3543 59.6637 56.1878 59.7436 56.0192C59.8234 55.8507 59.8989 55.6802 59.9701 55.5079C60.0415 55.3354 60.1087 55.1614 60.1714 54.9859C60.2342 54.8101 60.2927 54.633 60.3468 54.4546C60.4007 54.2761 60.4503 54.0963 60.4955 53.9151C60.5407 53.7341 60.5814 53.5522 60.6175 53.3693C60.6536 53.1864 60.6852 53.0026 60.7124 52.8179C60.9883 51.0482 60.9349 48.3793 59.834 46.8799C60.7584 46.4587 63.9526 43.2185 64.3216 42.3356C64.4673 42.4535 64.6119 42.5744 64.7383 42.7135C65.1002 43.1095 65.2578 43.5562 65.2315 44.0839C66.1028 45.0156 66.4625 46.6448 66.6716 47.8747C67.4725 52.5855 66.5481 57.4193 63.7483 61.3318C63.5812 61.5661 63.4083 61.7961 63.2296 62.0218C63.0509 62.2475 62.8668 62.4686 62.6772 62.6851C62.4873 62.9017 62.2923 63.1134 62.0921 63.3203C61.8919 63.5272 61.6866 63.729 61.4762 63.9257C61.2659 64.1223 61.0508 64.3135 60.8311 64.4993C60.6113 64.6852 60.387 64.8655 60.1581 65.0403C59.9292 65.2151 59.6961 65.384 59.4588 65.5472C59.2218 65.7106 58.9806 65.8678 58.7354 66.0188C58.4905 66.1701 58.2418 66.315 57.9894 66.4537C57.737 66.5924 57.4814 66.7248 57.2226 66.8508C56.9638 66.9769 56.7019 67.0965 56.4369 67.2097C56.1722 67.3227 55.9048 67.429 55.6346 67.5286C55.3644 67.6285 55.0919 67.7214 54.817 67.8074C54.5422 67.8937 54.2654 67.9729 53.9869 68.0451C53.708 68.1175 53.4276 68.1829 53.1456 68.2412C52.8635 68.2998 52.5802 68.3512 52.2957 68.3955C52.0107 68.4415 51.7247 68.4804 51.4377 68.5123C51.1505 68.5444 50.8628 68.5693 50.5746 68.5868C50.2864 68.6046 49.9979 68.6151 49.7092 68.6183C49.4205 68.6218 49.1318 68.6181 48.843 68.6072C48.5546 68.5963 48.2665 68.5783 47.9788 68.5531C47.691 68.5279 47.4042 68.4956 47.1182 68.4563C46.8319 68.417 46.5469 68.3706 46.2632 68.3173C45.9794 68.2636 45.6971 68.2032 45.4163 68.1359C45.1355 68.0685 44.8565 67.9941 44.5794 67.9127C44.3023 67.8314 44.0275 67.7434 43.7548 67.6487C43.4819 67.5538 43.2116 67.4522 42.9439 67.344C42.6762 67.2357 42.4114 67.121 42.1494 66.9999C41.8873 66.8785 41.6285 66.7507 41.3729 66.6165C41.1171 66.4823 40.8649 66.3419 40.6162 66.1953C40.3675 66.0487 40.1226 65.8961 39.8813 65.7374C39.6403 65.5787 39.4032 65.414 39.1702 65.2435C38.9408 65.0761 38.7156 64.9032 38.4946 64.7248C38.2736 64.5463 38.0572 64.3625 37.8454 64.1734C37.6335 63.9843 37.4265 63.79 37.2243 63.5906C37.0221 63.3913 36.8249 63.1871 36.6325 62.978C36.4405 62.7689 36.2536 62.5552 36.0719 62.337C35.8905 62.1187 35.7145 61.896 35.5439 61.6688C35.3734 61.4419 35.2085 61.2108 35.0493 60.9755C34.8901 60.7404 34.7369 60.5015 34.5895 60.2587C34.4422 60.016 34.301 59.7698 34.1657 59.5201C34.0305 59.2705 33.9016 59.0176 33.779 58.7615C33.6564 58.5054 33.5402 58.2465 33.4305 57.9847C33.3205 57.723 33.2172 57.4586 33.1205 57.1916C33.0236 56.9249 32.9334 56.6559 32.8498 56.3845C32.7663 56.1131 32.6895 55.8398 32.6196 55.5647C32.5496 55.2895 32.4866 55.0128 32.4305 54.7345C32.3741 54.4564 32.3247 54.177 32.2822 53.8962C32.2374 53.6094 32.1999 53.3218 32.1695 53.0334C32.1391 52.7449 32.1158 52.4558 32.0998 52.1661C32.0837 51.8766 32.0748 51.5868 32.0731 51.2966C32.0713 51.0064 32.0769 50.7165 32.0898 50.4268C32.1024 50.1371 32.1221 49.8477 32.1491 49.5588C32.1763 49.2701 32.2105 48.9821 32.2518 48.6949C32.2931 48.4076 32.3415 48.1216 32.3971 47.8369C32.4527 47.5524 32.5153 47.2692 32.5847 46.9874C32.6544 46.7059 32.731 46.4262 32.8143 46.1484C32.8978 45.8705 32.9881 45.5949 33.0853 45.3215C33.1824 45.0481 33.2863 44.7773 33.3967 44.5091C33.5075 44.2409 33.6247 43.9756 33.7482 43.7131C33.8721 43.4508 34.0024 43.1916 34.1391 42.9356C34.2755 42.6797 34.4184 42.4273 34.5677 42.1784C34.7167 41.9295 34.8718 41.6844 35.033 41.4432C35.1944 41.2019 35.3616 40.9649 35.5347 40.732C38.5424 36.7139 42.8001 34.5563 47.6925 33.8444Z" fill="#076B71"/>
<path d="M47.3318 21.5201C49.2579 21.3837 51.1785 21.4386 53.0937 21.6849C56.6418 22.115 64.8544 24.4827 67.0233 27.2479C66.7917 28.0376 63.3921 31.2253 62.5993 31.6792C62.5396 31.6021 62.5437 31.6017 62.4585 31.5242C59.5005 28.8382 52.6217 27.5081 48.7597 27.6427C48.3721 27.6535 47.9851 27.674 47.5986 27.7041C47.212 27.7342 46.8265 27.7738 46.4419 27.823C46.0573 27.8723 45.6741 27.931 45.2923 27.9992C44.9107 28.0675 44.5309 28.1452 44.153 28.2323C43.7754 28.3194 43.3999 28.4158 43.0267 28.5215C42.6538 28.6272 42.2837 28.7422 41.9164 28.8663C41.5488 28.9904 41.1848 29.1235 40.8242 29.2657C40.4636 29.4079 40.1065 29.5589 39.7531 29.7188C39.3999 29.8787 39.0509 30.0473 38.7061 30.2245C38.3613 30.4017 38.021 30.5874 37.6854 30.7815C37.3497 30.9756 37.0191 31.1779 36.6936 31.3885C36.3678 31.599 36.0476 31.8175 35.7329 32.0439C35.4182 32.2703 35.1093 32.5044 34.8059 32.7462C34.5029 32.9879 34.206 33.2371 33.9153 33.4937C33.6243 33.75 33.34 34.0135 33.0624 34.2842C32.7848 34.5548 32.514 34.8322 32.2499 35.1162C31.9862 35.4007 31.7295 35.6917 31.4801 35.989C31.2306 36.2861 30.9887 36.5893 30.7543 36.8985C30.5199 37.2078 30.2931 37.5226 30.0741 37.8429C29.8552 38.1633 29.6443 38.4888 29.4413 38.8195C29.2385 39.1505 29.044 39.4862 28.8577 39.8266C28.6713 40.167 28.4934 40.5117 28.3242 40.8607C28.1551 41.21 27.9945 41.5632 27.8426 41.9204C27.6907 42.2773 27.5477 42.6378 27.4136 43.0019C27.2795 43.3663 27.1545 43.7336 27.0386 44.1039C26.9228 44.4742 26.8161 44.8471 26.7185 45.2225C26.621 45.5983 26.5327 45.9761 26.4536 46.356C26.3748 46.7359 26.3054 47.1176 26.2454 47.501C26.1854 47.8844 26.1348 48.269 26.0935 48.6548C26.0525 49.0407 26.021 49.4273 25.9991 49.8146C25.9771 50.2022 25.9647 50.5901 25.962 50.9781C25.959 51.3662 25.9657 51.7541 25.982 52.1416C25.9958 52.5265 26.0192 52.9108 26.052 53.2944C26.0849 53.6783 26.1271 54.061 26.1787 54.4427C26.2306 54.8244 26.2917 55.2045 26.3621 55.5832C26.4325 55.9619 26.5122 56.3385 26.6011 56.713C26.69 57.0877 26.7881 57.4601 26.8953 57.8301C27.0027 58.1999 27.1192 58.5669 27.2446 58.931C27.3699 59.2951 27.5041 59.656 27.6474 60.0137C27.7906 60.3711 27.9425 60.7248 28.1031 61.0748C28.2636 61.4251 28.4327 61.771 28.6103 62.1126C28.7881 62.4543 28.9741 62.7914 29.1682 63.1241C29.3626 63.4566 29.5649 63.7841 29.7751 64.1067C29.9855 64.4293 30.2037 64.7465 30.4297 65.0585C30.6557 65.3702 30.8894 65.6762 31.1307 65.9765C31.3718 66.2769 31.6201 66.571 31.8757 66.859C32.1311 67.1472 32.3936 67.4289 32.663 67.704C32.9325 67.9791 33.2086 68.2474 33.4914 68.509C38.1707 72.8385 44.3446 74.9828 50.6925 74.7132C51.0754 74.6949 51.4576 74.6672 51.8392 74.6302C52.2208 74.5928 52.6013 74.5464 52.9807 74.4907C53.3598 74.4349 53.7374 74.3699 54.1136 74.2957C54.4898 74.2213 54.8638 74.1378 55.2358 74.0451C55.6078 73.9524 55.9773 73.8507 56.3443 73.7399C56.7114 73.6292 57.0754 73.5095 57.4365 73.381C57.7976 73.2525 58.1554 73.115 58.5098 72.9687C58.8643 72.8226 59.2149 72.6679 59.5617 72.5045C59.9084 72.3411 60.2511 72.1693 60.5898 71.9891C60.9281 71.8091 61.2618 71.6208 61.5908 71.424C61.9201 71.2275 62.2442 71.0231 62.5634 70.8108C62.8825 70.5984 63.1963 70.3783 63.5048 70.1504C63.813 69.9225 64.1156 69.6873 64.4125 69.4448C64.7091 69.2021 64.9998 68.9523 65.2846 68.6955C65.5691 68.4384 65.8472 68.1746 66.1189 67.9042C66.3904 67.6335 66.6551 67.3565 66.9133 67.0729C67.1753 66.7867 67.4301 66.4941 67.6776 66.1953C67.9251 65.8962 68.165 65.5913 68.3975 65.2806C68.6296 64.9699 68.8541 64.6535 69.071 64.3314C69.2876 64.0096 69.4962 63.6825 69.6967 63.3503C69.8973 63.0181 70.0895 62.681 70.2732 62.3392C70.457 61.9973 70.6322 61.6511 70.799 61.3006C70.9657 60.9504 71.1235 60.596 71.2724 60.2376C71.4216 59.8794 71.5618 59.5177 71.6929 59.1523C71.8241 58.787 71.9461 58.4187 72.059 58.0474C72.1721 57.6761 72.2758 57.3023 72.3702 56.9258C72.4645 56.5496 72.5495 56.1712 72.6251 55.7905C72.7009 55.4098 72.7671 55.0275 72.8237 54.6437C72.8805 54.2598 72.9277 53.8747 72.9652 53.4883C73.0027 53.102 73.0308 52.715 73.0493 52.3274C73.0678 51.9398 73.0767 51.552 73.076 51.1639C73.0752 50.7758 73.0649 50.388 73.0448 50.0004C72.8989 46.9111 71.4629 40.4043 69.0513 38.2967C69.0184 38.2678 68.9843 38.24 68.9509 38.2118C69.4226 36.4191 72.6425 35.3049 73.1453 33.4318C73.2227 33.4788 73.2972 33.5282 73.3683 33.5849C76.3078 35.9353 78.6526 44.3316 79.0742 48.0212C79.1266 48.5005 79.1673 48.9808 79.1964 49.462C79.2253 49.943 79.2425 50.4247 79.248 50.907C79.2536 51.389 79.2475 51.8709 79.2294 52.3526C79.2114 52.8344 79.1816 53.3154 79.1401 53.7957C79.0986 54.276 79.0455 54.755 78.9808 55.2328C78.9159 55.7106 78.8394 56.1865 78.7515 56.6603C78.6633 57.1344 78.5638 57.6061 78.4529 58.0752C78.3417 58.5441 78.2192 59.0102 78.0854 59.4734C77.9517 59.9367 77.8068 60.3963 77.6504 60.8524C77.4943 61.3084 77.3271 61.7604 77.1488 62.2083C76.9704 62.6562 76.7814 63.0995 76.5815 63.5383C76.3817 63.977 76.1713 64.4106 75.9502 64.839C75.7292 65.2674 75.4977 65.6902 75.2559 66.1074C75.0144 66.5247 74.7627 66.9356 74.5009 67.3403C74.2393 67.7452 73.968 68.1435 73.6869 68.5353C73.4056 68.9268 73.115 69.3113 72.8151 69.6888C72.5136 70.0689 72.2029 70.4415 71.883 70.8063C71.5634 71.1712 71.2349 71.528 70.8975 71.8767C70.5604 72.2255 70.2148 72.5659 69.8609 72.8979C69.5069 73.2296 69.1451 73.5525 68.7753 73.8667C68.4056 74.1809 68.0284 74.4858 67.6439 74.7814C67.2591 75.0771 66.8673 75.3632 66.4687 75.6398C66.07 75.9164 65.6648 76.183 65.2531 76.4396C64.8416 76.6961 64.4239 76.9426 64.0001 77.1789C63.5763 77.415 63.1469 77.6406 62.7119 77.8559C62.2772 78.071 61.8374 78.2754 61.3926 78.4692C60.9478 78.6627 60.4985 78.8454 60.0448 79.0172C59.5908 79.1888 59.133 79.3492 58.6714 79.4985C58.2097 79.6478 57.7448 79.7856 57.2765 79.9119C56.8082 80.0385 56.337 80.1534 55.8631 80.2567C55.3891 80.3601 54.9128 80.4518 54.4341 80.5318C53.9557 80.6119 53.4755 80.6803 52.9936 80.7369C52.7493 80.7661 52.5047 80.7921 52.2597 80.8151C52.0147 80.8381 51.7694 80.858 51.5239 80.8748C51.2784 80.8916 51.0327 80.9055 50.787 80.9163C50.5412 80.9272 50.2953 80.935 50.0493 80.9397C49.8033 80.9444 49.5572 80.946 49.311 80.9445C49.065 80.9433 48.8189 80.9388 48.5729 80.9312C48.3272 80.9238 48.0814 80.9133 47.8357 80.8997C47.5899 80.8858 47.3444 80.8691 47.0992 80.8496C46.8539 80.8298 46.6089 80.807 46.3641 80.781C46.1193 80.7553 45.875 80.7265 45.6313 80.6946C45.3872 80.6627 45.1436 80.6279 44.9003 80.5901C44.6572 80.552 44.4147 80.5111 44.1727 80.4673C43.9306 80.4233 43.689 80.3764 43.448 80.3264C43.2072 80.2765 42.9668 80.2235 42.727 80.1674C42.4874 80.1115 42.2486 80.0527 42.0105 79.9909C41.7724 79.9291 41.535 79.8643 41.2984 79.7966C41.0618 79.7289 40.8261 79.6582 40.5915 79.5845C40.3566 79.5108 40.1227 79.4343 39.8898 79.355C39.6569 79.2756 39.425 79.1933 39.194 79.1081C38.9633 79.023 38.7336 78.935 38.5049 78.8441C38.2762 78.7531 38.0487 78.6594 37.8225 78.563C37.596 78.4664 37.3708 78.367 37.1471 78.2649C36.923 78.1628 36.7004 78.058 36.4791 77.9505C36.258 77.8427 36.0382 77.7323 35.8196 77.6194C35.601 77.5062 35.3839 77.3904 35.1683 77.272C34.9527 77.1536 34.7385 77.0324 34.5259 76.9086C34.3132 76.7847 34.102 76.6583 33.8923 76.5293C33.6829 76.4003 33.475 76.2686 33.2688 76.1344C33.0626 76.0002 32.858 75.8634 32.6553 75.724C32.4525 75.5848 32.2514 75.443 32.0521 75.2987C31.8528 75.1543 31.6552 75.0076 31.4593 74.8586C31.2637 74.7093 31.0699 74.5576 30.878 74.4036C30.5011 74.102 30.1317 73.7916 29.7699 73.4722C29.408 73.1526 29.0542 72.8245 28.7084 72.4878C28.3626 72.1509 28.0254 71.8058 27.6966 71.4526C27.3676 71.0993 27.0475 70.7382 26.7363 70.3692C26.4251 70.0001 26.123 69.6238 25.8301 69.2401C25.5374 68.8565 25.2541 68.4658 24.9802 68.0681C24.7065 67.6706 24.4428 67.2666 24.1888 66.856C23.9347 66.4457 23.6908 66.0293 23.4571 65.6069C23.2237 65.1844 23.0006 64.7565 22.7877 64.3232C22.575 63.8899 22.3731 63.4517 22.1819 63.0084C21.9905 62.5655 21.8101 62.118 21.6406 61.6659C21.4712 61.2137 21.313 60.7579 21.166 60.2984C21.0188 59.8387 20.883 59.3755 20.7585 58.9091C20.634 58.4427 20.521 57.9735 20.4195 57.5016C20.3177 57.0298 20.2277 56.5556 20.1494 56.0793C20.0711 55.603 20.0044 55.1251 19.9493 54.6455C19.9212 54.4023 19.896 54.1587 19.8738 53.9147C19.8513 53.6707 19.832 53.4265 19.816 53.1821C19.7997 52.9378 19.7863 52.6934 19.7759 52.4487C19.7658 52.2039 19.7587 51.9591 19.7545 51.7141C19.7503 51.4692 19.749 51.2242 19.7508 50.9793C19.7527 50.7345 19.7576 50.4897 19.7652 50.2447C19.7731 50 19.784 49.7553 19.7978 49.5106C19.8116 49.2661 19.8286 49.0219 19.8486 48.7779C19.8683 48.5337 19.8912 48.2899 19.9171 48.0464C19.943 47.8027 19.9719 47.5594 20.0038 47.3167C20.0357 47.0737 20.0705 46.8312 20.1083 46.5892C20.1461 46.3472 20.1868 46.1057 20.2305 45.8647C20.2743 45.6237 20.3209 45.3833 20.3706 45.1436C20.4202 44.9038 20.4728 44.6646 20.5284 44.4261C20.584 44.1876 20.6425 43.9498 20.704 43.7127C20.7655 43.4754 20.8299 43.239 20.897 43.0034C20.9642 42.7681 21.0344 42.5335 21.1075 42.2997C21.1803 42.0658 21.2562 41.833 21.335 41.6011C21.4138 41.369 21.4953 41.138 21.5795 40.9081C21.664 40.6783 21.7513 40.4494 21.8414 40.2215C21.9313 39.9938 22.0241 39.7673 22.1197 39.5418C22.2152 39.3164 22.3137 39.0921 22.4149 38.8689C22.516 38.6459 22.6198 38.424 22.7265 38.2033C22.833 37.9828 22.9423 37.7637 23.0544 37.5459C23.1663 37.3281 23.2809 37.1117 23.3982 36.8967C23.5155 36.6816 23.6355 36.4681 23.758 36.256C23.8807 36.0439 24.0059 35.8334 24.1336 35.6245C24.2613 35.4157 24.3916 35.2083 24.5245 35.0024C24.6574 34.7967 24.7927 34.5927 24.9306 34.3902C25.0684 34.1878 25.2087 33.9871 25.3514 33.7881C25.4942 33.5891 25.6394 33.3918 25.7871 33.1963C25.9348 33.001 26.0849 32.8075 26.2373 32.6157C31.6231 25.9059 38.8802 22.4455 47.3318 21.5201Z" fill="#076B71"/>
</svg>
