<svg width="101" height="101" viewBox="0 0 101 101" fill="none" xmlns="http://www.w3.org/2000/svg">
<circle cx="50.4678" cy="50.7391" r="50" fill="white"/>
<path d="M50.2306 17.7391C50.2948 17.7462 50.3591 17.7542 50.423 17.7642C51.0954 17.8687 51.821 18.2476 52.2083 18.8059C52.9509 19.8757 52.4295 28.5206 52.0469 30.1371C51.8585 30.934 51.3247 31.2597 50.6647 31.6623C50.4429 31.6153 50.2256 31.5531 50.0127 31.4756C49.4973 31.2914 49.095 31.0321 48.8661 30.524C48.3771 29.4395 47.8868 20.1026 48.359 18.9851C48.6475 18.3029 49.5866 17.99 50.2306 17.7391Z" fill="#FCBB00"/>
<path d="M80.503 30.1643C80.6459 30.1556 80.7878 30.1515 80.9314 30.158C81.5724 30.187 82.5142 30.4544 82.9479 30.9473C83.2204 31.2567 83.2943 31.6253 83.2455 32.0247C83.1544 32.7682 82.7746 33.479 82.3177 34.0675C80.9549 35.8245 76.6053 39.4535 74.7434 40.8574C74.4532 40.9224 74.1356 40.9884 73.8364 40.9651C73.321 40.925 72.7918 40.8035 72.4431 40.408C72.2011 39.8815 72.253 39.4644 72.4605 38.9294C73.088 37.312 78.837 30.9141 80.503 30.1643Z" fill="#FCBB00"/>
<path d="M19.1336 30.3371C19.6075 30.3308 20.2705 30.3594 20.717 30.5317C21.8466 30.9671 27.9406 37.8009 28.442 38.9574C28.4623 39.0057 28.48 39.0548 28.4952 39.1048C28.5106 39.1549 28.5232 39.2055 28.533 39.2568C28.5428 39.3081 28.5501 39.3598 28.5547 39.4118C28.5592 39.4638 28.561 39.5159 28.5601 39.5681C28.559 39.6203 28.5553 39.6723 28.5491 39.7241C28.5426 39.776 28.5334 39.8274 28.5216 39.8783C28.51 39.9291 28.4956 39.9793 28.4784 40.0287C28.4615 40.0782 28.442 40.1267 28.4199 40.1742C28.1441 40.7809 27.536 40.9875 26.9496 41.2069C26.9238 41.1974 26.8984 41.1878 26.8726 41.1786C25.3973 40.6581 18.5449 34.9131 17.8076 33.5566C17.5248 33.0363 17.4036 32.3947 17.5917 31.8254C17.8508 31.0418 18.4304 30.6855 19.1336 30.3371Z" fill="#FCBB00"/>
<path d="M47.7991 39.7927C54.7626 38.6001 64.0127 42.2698 69.767 45.8548C72.8113 47.7509 84.0963 56.3865 84.8336 59.6329C84.7499 60.3568 84.3048 60.9227 83.849 61.4715C76.8272 69.9218 64.9719 78.3376 53.6407 79.5109C53.4961 79.5325 53.3511 79.5517 53.2056 79.5683C43.4039 80.7094 33.6618 75.9728 26.1829 70.1774C24.4111 68.8048 16.2915 62.0043 16.1081 59.9643C16.0348 59.1497 16.5894 58.3243 17.0914 57.7141C18.6832 55.7795 20.6723 53.931 22.5412 52.2605C29.655 45.9011 38.0797 40.8459 47.7991 39.7927Z" fill="#076B71"/>
<path d="M49.7408 44.4963C49.9755 44.4869 50.2102 44.4827 50.445 44.4838C50.6799 44.4849 50.9147 44.4913 51.1492 44.5029C51.3839 44.5145 51.6181 44.5312 51.8517 44.5531C52.0855 44.5752 52.3187 44.6024 52.5512 44.6346C52.7839 44.667 53.0156 44.7045 53.2463 44.7472C53.477 44.7899 53.7067 44.8377 53.9354 44.8904C54.1639 44.9434 54.3912 45.0014 54.6172 45.0645C54.843 45.1274 55.0673 45.1953 55.2903 45.2685C55.5129 45.3414 55.7338 45.4192 55.9529 45.502C56.1723 45.5848 56.3895 45.6725 56.6046 45.7651C56.8197 45.8575 57.0325 45.9547 57.2432 46.0568C57.4536 46.1586 57.6616 46.2651 57.8673 46.3763C58.0731 46.4876 58.2761 46.6033 58.4765 46.7235C58.6768 46.8437 58.8743 46.9684 59.0689 47.0976C59.2634 47.2266 59.4549 47.3598 59.6432 47.4973C59.8315 47.6348 60.0166 47.7765 60.1985 47.9223C60.3926 48.0778 60.5828 48.2379 60.7691 48.4025C60.9552 48.5672 61.1371 48.7362 61.315 48.9097C61.4926 49.0831 61.6658 49.2607 61.8347 49.4424C62.0036 49.6241 62.1679 49.8097 62.3274 49.9991C62.4872 50.1887 62.642 50.3821 62.7919 50.5792C62.9419 50.7762 63.0868 50.9768 63.2267 51.1809C63.3666 51.3847 63.5014 51.5919 63.631 51.8023C63.7604 52.0129 63.8846 52.2264 64.0035 52.4428C64.1227 52.6591 64.2361 52.8783 64.3439 53.1003C64.4519 53.3221 64.5543 53.5465 64.6511 53.7733C64.748 54.0002 64.839 54.2291 64.9242 54.4601C65.0097 54.6913 65.0892 54.9244 65.1629 55.1594C65.2367 55.3943 65.3046 55.631 65.3664 55.8695C65.4282 56.1077 65.4841 56.3473 65.534 56.5881C65.584 56.829 65.6279 57.0709 65.6656 57.314C65.7035 57.557 65.7353 57.8009 65.761 58.0454C66.1606 62.156 65.0474 66.1686 62.3388 69.3634C59.4939 72.7189 55.7046 74.4879 51.3138 74.8781C47.2775 74.994 43.541 73.9381 40.4137 71.3643C40.2187 71.2043 40.0279 71.0396 39.8414 70.8704C39.6549 70.7011 39.4726 70.5275 39.2945 70.3494C39.1167 70.1712 38.9434 69.9889 38.7747 69.8026C38.6058 69.616 38.4418 69.4255 38.2827 69.2311C38.1237 69.0368 37.9695 68.8388 37.8202 68.6369C37.6709 68.435 37.5269 68.2296 37.3881 68.0207C37.2491 67.8121 37.1156 67.6001 36.9875 67.3849C36.8592 67.1696 36.7364 66.9513 36.619 66.7299C36.5019 66.5088 36.3903 66.2849 36.2843 66.0583C36.1783 65.8319 36.078 65.6029 35.9834 65.3715C35.8891 65.14 35.8005 64.9064 35.7177 64.6706C35.6349 64.4347 35.5582 64.1972 35.4874 63.9578C35.4165 63.7183 35.3517 63.4773 35.293 63.2349C35.2343 62.9923 35.1818 62.7484 35.1353 62.5031C35.0889 62.2581 35.0487 62.0121 35.0145 61.7651C34.9806 61.5179 34.9528 61.2701 34.9312 61.0218C34.9091 60.772 34.8933 60.5218 34.8837 60.2713C34.8741 60.0208 34.8708 59.7702 34.874 59.5195C34.8769 59.2688 34.8861 59.0183 34.9017 58.768C34.9173 58.5177 34.9392 58.268 34.9673 58.0188C34.9954 57.7697 35.0299 57.5213 35.0707 57.2739C35.1114 57.0263 35.1581 56.7798 35.211 56.5346C35.2641 56.2893 35.3232 56.0455 35.3884 55.8031C35.4537 55.5607 35.5251 55.32 35.6026 55.0809C35.6798 54.842 35.763 54.6051 35.8522 54.3701C35.9417 54.1352 36.0369 53.9025 36.1377 53.6722C36.2386 53.4418 36.3452 53.2141 36.4577 52.989C36.5702 52.7637 36.6882 52.5413 36.8118 52.3219C36.9354 52.1025 37.0644 51.8862 37.1987 51.6729C37.3332 51.4596 37.473 51.2497 37.6181 51.0433C37.7629 50.8368 37.9129 50.6339 38.0682 50.4346C38.2233 50.2354 38.3834 50.04 38.5485 49.8484C41.4476 46.4926 45.3376 44.8395 49.7408 44.4963Z" fill="#FCFCFC"/>
<path d="M58.38 54.563C59.2766 56.5908 59.9433 58.5717 59.6812 60.813C59.6638 60.9613 59.6426 61.1091 59.6176 61.2564C59.5926 61.4036 59.564 61.5501 59.5316 61.6959C59.499 61.8417 59.4629 61.9867 59.4232 62.1308C59.3835 62.2748 59.3402 62.4179 59.2933 62.56C59.2465 62.7019 59.1959 62.8426 59.1417 62.9821C59.0877 63.1216 59.0303 63.2597 58.9693 63.3966C58.9082 63.5332 58.8437 63.6683 58.7759 63.8019C58.7081 63.9357 58.6369 64.0676 58.5624 64.1977C58.4878 64.3278 58.41 64.456 58.3288 64.5823C58.2478 64.7086 58.1636 64.833 58.0764 64.9554C57.9892 65.0776 57.8988 65.1976 57.8053 65.3154C57.712 65.4334 57.6158 65.549 57.5165 65.6622C57.4172 65.7754 57.3152 65.8861 57.2106 65.9943C57.1057 66.1025 56.9981 66.2081 56.8879 66.3112C56.7779 66.4142 56.6652 66.5143 56.5499 66.6118C56.4348 66.7094 56.3172 66.8041 56.1971 66.8959C56.076 66.9896 55.9525 67.0804 55.8266 67.1682C55.701 67.256 55.5732 67.3407 55.4431 67.4224C55.3132 67.5038 55.1814 67.5822 55.0475 67.6576C54.9136 67.7329 54.7778 67.8048 54.6402 67.8734C54.5027 67.9421 54.3636 68.0075 54.2228 68.0694C54.082 68.1316 53.9398 68.1902 53.7961 68.2452C53.6524 68.3003 53.5074 68.352 53.361 68.4002C53.2146 68.4484 53.0671 68.493 52.9185 68.5342C52.7701 68.5751 52.6207 68.6126 52.47 68.6465C52.3197 68.6802 52.1685 68.7103 52.0165 68.7368C51.8646 68.7636 51.7121 68.7864 51.559 68.8055C51.406 68.8248 51.2524 68.8403 51.0985 68.8521C50.9448 68.864 50.7907 68.8721 50.6363 68.8764C50.4821 68.8808 50.3278 68.8815 50.1734 68.8784C50.0192 68.8753 49.8652 68.8686 49.7112 68.858C49.5573 68.8475 49.4036 68.8333 49.2503 68.8153C49.0977 68.7985 48.9457 68.7779 48.7942 68.7536C48.6427 68.7293 48.4918 68.7015 48.3417 68.6702C48.1915 68.6386 48.0422 68.6035 47.8939 68.5647C47.7455 68.526 47.5982 68.4837 47.4521 68.438C47.3059 68.392 47.1609 68.3426 47.017 68.2898C46.8733 68.2371 46.7309 68.1808 46.5899 68.121C46.4491 68.0612 46.3098 67.9982 46.1719 67.9318C46.0342 67.8655 45.8982 67.7957 45.7639 67.7226C45.6296 67.6497 45.4972 67.5735 45.3666 67.494C45.2363 67.4147 45.108 67.3323 44.9817 67.2467C44.8552 67.1611 44.7311 67.0725 44.6092 66.981C44.4874 66.8892 44.3679 66.7947 44.2508 66.6975C44.1336 66.6001 44.0191 66.4999 43.9071 66.397C43.795 66.2941 43.6856 66.1885 43.5787 66.0804C43.4718 65.9722 43.3678 65.8616 43.2665 65.7486C43.1654 65.6354 43.0671 65.5198 42.9716 65.4018C41.432 63.462 40.757 60.88 41.0783 58.4472C41.4059 55.9661 42.7818 53.8269 44.789 52.3161C47.2067 50.4961 49.8357 50.3467 52.7495 50.7218C51.5068 51.3928 50.7996 52.206 49.9314 53.2738C49.7022 54.9203 49.6165 56.4926 50.6908 57.8958C51.3719 58.7855 52.617 59.493 53.7338 59.673C54.8721 59.4644 55.9719 59.2161 56.8682 58.4485C58.0667 57.4221 58.2601 56.0308 58.38 54.563Z" fill="#076B71"/>
<path d="M53.7336 59.6728C53.1127 59.8312 52.3848 60.0233 51.7375 60.0026C50.7649 59.9714 49.6822 59.4623 49.0185 58.7689C48.392 58.1144 48.0382 57.2348 48.0981 56.3335C48.1851 55.022 48.973 54.102 49.9312 53.2737C49.7019 54.9202 49.6163 56.4925 50.6906 57.8956C51.3717 58.7854 52.6167 59.4928 53.7336 59.6728Z" fill="#FCBB00"/>
</svg>
